<svg width="451" height="451" viewBox="0 0 451 451" fill="none" xmlns="http://www.w3.org/2000/svg">
<g filter="url(#filter0_d)">
<path d="M288.307 338.862H279.905V357.6H269.358V306.412H288.378C294.425 306.412 299.089 307.76 302.37 310.455C305.651 313.151 307.292 316.959 307.292 321.881C307.292 325.373 306.53 328.291 305.007 330.635C303.507 332.955 301.221 334.807 298.151 336.19L309.225 357.108V357.6H297.905L288.307 338.862ZM279.905 330.319H288.413C291.061 330.319 293.112 329.651 294.565 328.315C296.018 326.955 296.745 325.092 296.745 322.725C296.745 320.311 296.053 318.412 294.671 317.03C293.311 315.647 291.214 314.955 288.378 314.955H279.905V330.319ZM315.342 357.6V306.412H333.272C339.483 306.412 344.194 307.608 347.405 309.998C350.616 312.366 352.221 315.846 352.221 320.44C352.221 322.948 351.577 325.162 350.288 327.084C348.999 328.983 347.206 330.377 344.909 331.268C347.534 331.924 349.596 333.248 351.096 335.241C352.62 337.233 353.382 339.67 353.382 342.553C353.382 347.475 351.811 351.202 348.671 353.733C345.53 356.264 341.053 357.553 335.241 357.6H315.342ZM325.889 335.311V349.127H334.925C337.409 349.127 339.342 348.541 340.725 347.37C342.132 346.174 342.835 344.534 342.835 342.448C342.835 337.76 340.409 335.381 335.557 335.311H325.889ZM325.889 327.858H333.694C339.014 327.764 341.675 325.643 341.675 321.495C341.675 319.174 340.995 317.51 339.635 316.502C338.3 315.471 336.178 314.955 333.272 314.955H325.889V327.858ZM387.87 344.17C387.87 342.178 387.167 340.655 385.76 339.6C384.354 338.522 381.823 337.397 378.167 336.225C374.51 335.03 371.616 333.858 369.483 332.709C363.671 329.569 360.764 325.338 360.764 320.018C360.764 317.252 361.538 314.791 363.085 312.635C364.655 310.455 366.893 308.756 369.8 307.537C372.729 306.319 376.01 305.709 379.643 305.709C383.3 305.709 386.557 306.377 389.417 307.713C392.276 309.026 394.491 310.889 396.061 313.303C397.655 315.717 398.452 318.459 398.452 321.53H387.905C387.905 319.186 387.167 317.37 385.69 316.08C384.214 314.768 382.139 314.112 379.467 314.112C376.889 314.112 374.885 314.662 373.456 315.764C372.026 316.842 371.311 318.272 371.311 320.053C371.311 321.717 372.143 323.112 373.807 324.237C375.495 325.362 377.967 326.416 381.225 327.401C387.225 329.205 391.596 331.444 394.339 334.116C397.081 336.787 398.452 340.116 398.452 344.1C398.452 348.53 396.776 352.01 393.425 354.541C390.073 357.049 385.561 358.303 379.889 358.303C375.952 358.303 372.366 357.588 369.132 356.159C365.897 354.705 363.425 352.725 361.714 350.217C360.026 347.709 359.182 344.803 359.182 341.498H369.764C369.764 347.147 373.139 349.971 379.889 349.971C382.397 349.971 384.354 349.467 385.76 348.459C387.167 347.428 387.87 345.998 387.87 344.17Z" fill="white"/>
</g>
<path d="M234.08 432.961C234.08 442.682 226.201 450.561 216.48 450.561H17.6C7.87875 450.561 -2.38419e-06 442.682 -2.38419e-06 432.961V190.669C-2.38419e-06 185.444 2.32031 180.49 6.33187 177.149L214.012 4.08116C220.54 -1.3604 230.02 -1.3604 236.548 4.08116L444.228 177.149C451.694 183.371 452.702 194.467 446.48 201.937C440.258 209.403 429.158 210.41 421.692 204.188L225.28 40.5118L35.2 198.912V415.361H216.48C226.201 415.361 234.08 423.24 234.08 432.961ZM422.699 385.348C403.387 408.63 374.55 429.946 336.985 448.708C332.032 451.18 326.208 451.18 321.255 448.708C283.69 429.946 254.853 408.63 235.544 385.348C178.221 316.244 218.137 239.976 277.2 239.976C300.737 239.976 318.051 249.611 329.12 258.656C340.189 249.611 357.503 239.976 381.04 239.976C440.217 239.976 479.878 316.412 422.699 385.348ZM381.04 275.176C356.692 275.176 343.912 293.429 343.788 293.611C336.48 304.636 321.069 303.962 314.497 293.684C313.418 292.168 300.781 275.176 277.2 275.176C239.264 275.176 206.68 348.285 329.12 413.171C451.56 348.285 418.983 275.176 381.04 275.176Z" fill="white"/>
<defs>
<filter id="filter0_d" x="265.358" y="305.709" width="137.094" height="60.5938" filterUnits="userSpaceOnUse" color-interpolation-filters="sRGB">
<feFlood flood-opacity="0" result="BackgroundImageFix"/>
<feColorMatrix in="SourceAlpha" type="matrix" values="0 0 0 0 0 0 0 0 0 0 0 0 0 0 0 0 0 0 127 0"/>
<feOffset dy="4"/>
<feGaussianBlur stdDeviation="2"/>
<feColorMatrix type="matrix" values="0 0 0 0 0 0 0 0 0 0 0 0 0 0 0 0 0 0 0.25 0"/>
<feBlend mode="normal" in2="BackgroundImageFix" result="effect1_dropShadow"/>
<feBlend mode="normal" in="SourceGraphic" in2="effect1_dropShadow" result="shape"/>
</filter>
</defs>
</svg>
